<?xml version="1.0" encoding="UTF-8" standalone="no"?>
<!-- Created with Inkscape (http://www.inkscape.org/) -->

<svg
   xmlns:dc="http://purl.org/dc/elements/1.1/"
   xmlns:cc="http://creativecommons.org/ns#"
   xmlns:rdf="http://www.w3.org/1999/02/22-rdf-syntax-ns#"
   xmlns:svg="http://www.w3.org/2000/svg"
   xmlns="http://www.w3.org/2000/svg"
   xmlns:sodipodi="http://sodipodi.sourceforge.net/DTD/sodipodi-0.dtd"
   xmlns:inkscape="http://www.inkscape.org/namespaces/inkscape"
   width="700"
   height="800"
   id="svg3261"
   version="1.1"
   inkscape:version="0.48.3.1 r9886"
   sodipodi:docname="blender.svg"
   inkscape:export-filename="/home/rico/Projects/ots-feedblender-bitbucket/design/graphical/blender.png"
   inkscape:export-xdpi="90"
   inkscape:export-ydpi="90">
  <defs
     id="defs3263">
    <filter
       color-interpolation-filters="sRGB"
       inkscape:collect="always"
       id="filter3838">
      <feBlend
         inkscape:collect="always"
         mode="screen"
         in2="BackgroundImage"
         id="feBlend3840" />
    </filter>
  </defs>
  <sodipodi:namedview
     id="base"
     pagecolor="#ffffff"
     bordercolor="#666666"
     borderopacity="1.0"
     inkscape:pageopacity="0.0"
     inkscape:pageshadow="2"
     inkscape:zoom="0.7"
     inkscape:cx="-14.535163"
     inkscape:cy="412.02775"
     inkscape:document-units="px"
     inkscape:current-layer="layer2"
     showgrid="false"
     inkscape:window-width="1366"
     inkscape:window-height="721"
     inkscape:window-x="0"
     inkscape:window-y="25"
     inkscape:window-maximized="1" />
  <metadata
     id="metadata3266">
    <rdf:RDF>
      <cc:Work
         rdf:about="">
        <dc:format>image/svg+xml</dc:format>
        <dc:type
           rdf:resource="http://purl.org/dc/dcmitype/StillImage" />
        <dc:title />
      </cc:Work>
    </rdf:RDF>
  </metadata>
  <g
     inkscape:label="Layer 1"
     inkscape:groupmode="layer"
     id="layer1"
     transform="translate(0,-252.36218)">
    <path
       style="fill:#ffe680;stroke:none;display:inline"
       d="m 445.19303,916.40823 c -11.3131,-5.95068 -19.28469,-17.35129 -23.45467,-28.66041 -6.59342,-17.88157 -7.90088,-38.66107 -3.84553,-57.3842 3.43435,-15.85602 17.97158,-26.75172 31.6098,-34.44312 21.26076,-11.9902 48.76267,-16.38851 71.3458,-5.26988 18.85788,9.28453 32.60807,28.20852 36.50791,48.63623 3.54772,18.58325 -0.21392,38.9372 -10.82216,54.84748 -9.06548,13.59644 -24.39378,20.72259 -39.38239,25.81487 -16.11728,5.47574 -34.08095,8.06596 -50.33456,1.731 -3.96847,-1.54674 -7.8555,-3.28964 -11.6242,-5.27197 z"
       id="path4551"
       inkscape:connector-curvature="0"
       sodipodi:nodetypes="ssssssssss" />
    <path
       style="fill:#ffb134;fill-opacity:1;stroke:none;display:inline"
       d="m 448.1349,799.33016 c 7.14242,-0.66448 11.26791,5.96808 15.17332,9.80874 4.08307,4.01538 6.13523,8.07093 9.7654,12.5 2.86866,3.49997 4.84253,7.69635 7.85714,11.07143 2.02187,2.26364 3.9966,4.87441 6.78572,6.07143 4.06101,1.74289 8.82299,1.56749 13.21428,1.07143 2.35702,-0.26626 5.23964,-0.34395 6.78572,-2.14286 2.51318,-2.92416 1.9352,-7.57572 1.78571,-11.42857 -0.18024,-4.64546 -1.40158,-9.29044 -3.21428,-13.57143 -1.983,-4.68318 -4.76571,-9.11925 -8.21429,-12.85714 -2.93844,-3.18495 -6.13996,-6.0052 -9.59953,-8.61475 -2.85124,-2.1507 -9.06818,-4.47037 -12.61204,-4.91336 -10.74967,-1.34371 -38.51391,14.00861 -27.72715,13.00508 z"
       id="path4558"
       inkscape:connector-curvature="0"
       sodipodi:nodetypes="sssssssssssss" />
    <path
       style="fill:#ffb134;fill-opacity:1;stroke:none;display:inline"
       d="m 416.36713,832.29191 c 3.15256,5.3984 5.67086,11.10485 8.13506,16.84699 l 7.85714,7.14286 10.00001,2.5 8.21428,-4.64286 2.85714,-9.28571 -2.5,-10.71429 -8.21428,-8.57143 -7.85715,-5.71428 -7.14285,-5 z"
       id="path4562"
       inkscape:connector-curvature="0"
       sodipodi:nodetypes="ccccccccccc" />
    <path
       style="fill:#000000;fill-opacity:1;stroke:none;display:inline"
       d="m 490.63612,780.53565 c -9.48199,0.0335 -19.11841,0.59165 -28.28125,3.03125 -7.28485,1.93958 -14.25948,5.15527 -20.6875,9.09375 -6.12092,3.75032 -12.11146,8.12538 -16.6875,13.65625 -4.2741,5.16592 -7.78945,11.19876 -9.59375,17.65625 -0.95251,3.40897 -2.77869,7.91651 -0.5,10.625 0.87384,1.03866 2.83451,1.14048 4.03125,0.5 3.31917,-1.77636 2.93826,-6.98571 5.0625,-10.09375 0.94658,-1.38497 2.02751,-2.69571 3.15625,-3.9375 6.23223,-0.49726 14.0262,6.1152 17.17411,10.21875 3.65209,4.97401 8.35236,11.37674 6.80803,16.97321 -1.37597,4.62572 -6.5748,7.93794 -11.27232,7.67411 -4.88575,-0.32787 -9.21156,-4.43411 -11.42857,-8.20982 -0.9174,-1.56137 -0.79421,-3.77178 -2.125,-5 -1.68069,-1.22068 -3.10405,-0.55374 -4.28125,0.6875 -0.63339,2.66052 0.66236,5.90422 1.94196,8.04018 3.26967,4.0371 7.44942,8.26611 11.96429,9.83482 3.835,0.63818 8.52045,0.47884 11.8125,-0.71875 4.71525,-1.95982 7.43861,-5.65489 8.55357,-10.34375 0.47445,-5.04855 -0.0969,-10.48746 -2.32143,-14.64286 -3.48823,-5.54707 -7.75378,-9.6654 -11.95089,-13.95089 -1.87999,-1.93894 -4.21184,-3.62511 -5.375,-6.0625 -0.57308,-1.20087 -2.11607,-2.24894 -0.65625,-3.9375 1.46876,-1.6989 2.94934,-3.36326 4.65625,-4.8125 4.62737,-3.92881 9.72329,-7.41741 15.15625,-10.125 6.38583,-3.18247 13.25847,-5.49358 20.21875,-7.0625 4.62499,-1.04252 9.38493,-1.4048 14.125,-1.5 5.06095,-0.10166 10.22022,-0.12214 15.15625,1 5.30449,1.2059 10.44605,3.34113 15.15625,6.0625 6.12437,3.53842 11.94791,7.84675 16.65625,13.125 4.47865,5.02077 8.15855,10.92786 10.625,17.1875 2.51766,6.38959 -0.38596,14.92881 4.03125,20.1875 2.09135,2.48975 6.44885,5.42256 9.09375,3.53125 3.2896,-2.35232 0.0412,-8.11726 -0.5,-12.125 -0.60116,-4.45197 -1.4143,-8.93371 -3.03125,-13.125 -2.3602,-6.11787 -5.46656,-12.06065 -9.59375,-17.15625 -5.63211,-6.95364 -12.57626,-13.03281 -20.21875,-17.6875 -5.09995,-3.10614 -10.85243,-5.15776 -16.65625,-6.5625 -6.578,-1.59212 -13.45085,-2.05515 -20.21875,-2.03125 z m -6.125,8.59375 c -0.77771,0.55997 -0.41514,2.01125 0,2.875 1.64692,3.42662 6.18641,4.46858 8.90625,7.125 3.454,3.37347 6.83157,6.95184 9.3125,11.09375 1.97202,3.29228 3.55456,6.91922 4.28125,10.6875 0.70022,3.63102 1.42088,7.67971 0,11.09375 -0.84057,2.01969 -2.64972,3.75348 -4.65625,4.625 -3.05954,1.32889 -6.74024,1.0826 -10,0.375 -3.38248,-0.73424 -7.03342,-2.02424 -9.28125,-4.65625 -1.5404,-1.80367 -6.25202,-5.96783 -7.69197,-7.85268 -4.37085,-5.72131 -7.15769,-8.26202 -10.15624,-13.9375 -1.78989,-3.38778 -4.01675,-9.81568 -7.49554,-8.20982 -1.51747,0.70049 -0.63026,3.34826 -0.375,5 2.59755,7.66536 11.40261,15.19632 16.4375,21.4375 2.24965,2.72319 4.46521,5.51949 7.125,7.84375 1.74275,1.52291 3.57781,3.05839 5.71875,3.9375 3.13204,1.28608 5.19877,2.73322 8.57143,3.03125 5.12983,0.53241 11.59623,-0.0334 14.30357,-4.8125 2.9006,-6.90974 3.26889,-15.45912 0.89286,-21.79464 -3.39447,-9.05113 -8.85558,-19.43107 -16.26786,-24.64286 -2.79643,-1.90383 -6.87962,-5.19548 -9.625,-3.21875 z m -40.34375,122.1875 c -0.12866,10e-4 -0.24099,0.009 -0.375,0.0312 -2.14415,0.35714 -3.60425,2.71069 -3.65625,4.53125 -0.0561,1.96283 1.97162,3.68902 3.65625,5.0625 3.49394,2.84859 8.22928,4.44945 12.71875,6.0625 4.46253,1.60336 9.16157,2.93551 13.96875,3.53125 5.7986,0.71861 11.77021,0.75303 17.5625,0 5.24281,-0.68159 11.87695,-0.55697 15.15625,-4.03125 1.7535,-1.85776 2.77802,-5.55468 0.625,-7.09375 -3.46076,-2.47391 -8.8391,1.9371 -13.34375,2.53125 -4.41074,0.58177 -8.88788,1.2468 -13.34375,1 -4.55074,-0.25206 -9.04949,-1.22055 -13.34375,-2.5 -5.10735,-1.5217 -9.87092,-3.79502 -14.5625,-6.0625 -1.77304,-0.85692 -3.13253,-3.08167 -5.0625,-3.0625 z"
       id="path4547"
       inkscape:connector-curvature="0"
       sodipodi:nodetypes="sssssssscccccccccccccssssssssssssssssssssssssssssssccssccscscsssssssssssssc" />
    <path
       style="fill:#000000;fill-opacity:1;stroke:none;display:inline"
       d="m 557.2388,836.6919 c -36.2606,1.52161 -54.99427,16.13828 -73.45982,38.99107 -14.58481,18.5478 -12.60711,56.67405 -3.66412,77.12897 16.30437,37.2923 63.31484,55.95006 104.0034,46.93353 25.6309,-5.67979 47.64625,-20.40031 59.04911,-44.14732 11.09842,-23.11299 5.00258,-51.4535 -7,-73.125 -15.21863,-27.47831 -47.19532,-47.11288 -78.92857,-45.78125 z"
       id="path4570"
       inkscape:connector-curvature="0"
       sodipodi:nodetypes="scsssss" />
    <path
       style="fill:#ffe680;fill-opacity:1;stroke:none;display:inline"
       d="m 526.64505,854.49605 c -15.68011,7.44246 -23.54122,20.2683 -34.7019,33.14777 -11.32682,13.07121 -9.31169,32.56257 -4.51298,48.18102 5.79986,18.87689 19.07217,35.13478 36.30027,44.81054 13.48704,7.57468 29.05488,14.27896 44.75769,12.07652 15.82327,-2.21934 32.13984,-6.55152 44.4568,-17.44017 9.77708,-8.6433 20.65308,-17.65714 23.6519,-31.15816 4.38277,-19.73169 -0.18291,-40.64466 -9.89876,-57.92591 -13.08059,-23.266 -39.11048,-39.05077 -65.78626,-39.6491 -10.46746,-0.23478 -24.90448,3.51375 -34.26676,7.95749 z"
       id="path4567"
       inkscape:connector-curvature="0"
       sodipodi:nodetypes="ssssssssss" />
    <path
       style="fill:#000000;fill-opacity:1;stroke:none;display:inline"
       d="m 551.591,949.96178 c 6.62862,15.02066 -3.68248,26.18881 -16.49778,25.27743 -7.65067,-0.43511 -14.01277,-3.67536 -16.45225,-11.14461 -2.02883,-9.52698 1.02527,-19.40635 10.45704,-22.49178 8.8318,-2.02983 18.20277,0.85388 22.49299,8.35896 z"
       id="path4584"
       inkscape:connector-curvature="0"
       sodipodi:nodetypes="ccccc" />
    <path
       style="fill:#ffb134;fill-opacity:1;stroke:none;display:inline"
       d="m 543.9616,968.71448 c 3.1251,-2.08484 6.10917,-4.97937 6.9952,-8.77265 0.87183,-3.7325 -0.34591,-7.68898 -2.84626,-10.50089 -5.55672,-6.24911 -10.16669,-6.62765 -16.64809,-5.42028 -4.51864,0.84174 -8.46233,6.80345 -8.82884,11.52904 -0.50365,6.49375 1.49813,10.68747 7.25815,13.48711 4.25802,2.0696 10.89106,1.79832 14.06984,-0.32233 z"
       id="path4582"
       inkscape:connector-curvature="0"
       sodipodi:nodetypes="sssssss" />
    <path
       style="fill:#ffb134;fill-opacity:1;stroke:none;display:inline"
       d="m 504.50219,913.96033 c 0.24168,-1.94299 0.85106,-3.92502 1.96429,-5.53571 1.15266,-1.66774 2.84539,-2.99097 4.64286,-3.92857 2.67546,-1.39558 5.75776,-1.93125 8.75,-2.32143 4.13169,-0.53876 8.36165,-0.48493 12.5,0 6.13731,0.71917 12.21728,2.20492 18.03571,4.28571 4.98823,1.78389 9.68045,4.34582 14.28571,6.96429 3.77451,2.14612 7.52458,4.40287 10.89286,7.14285 2.15496,1.75299 4.16738,3.71581 5.89286,5.89286 2.17511,2.74436 3.89816,5.83325 5.53571,8.92857 1.91902,3.62735 3.73696,7.34551 5,11.25 1.06715,3.29892 1.89157,6.72046 2.14286,10.17857 0.20748,2.85519 0.11962,5.78473 -0.53571,8.57143 -0.66559,2.83034 -1.71052,5.66432 -3.39286,8.03572 -1.48737,2.09657 -3.47009,3.92501 -5.71429,5.17857 -1.67747,0.937 -3.61568,1.68034 -5.53571,1.60714 -2.54101,-0.0969 -5.13119,-1.12316 -7.14286,-2.67857 -1.55467,-1.20206 -2.73631,-2.96916 -3.39286,-4.82143 -0.87703,-2.47429 -0.63798,-5.23401 -0.53571,-7.85714 0.15938,-4.08805 2.56555,-8.12672 1.78571,-12.14286 -0.53903,-2.776 -2.50597,-5.12387 -4.28571,-7.32143 -2.28057,-2.81596 -5.25662,-4.99606 -8.03571,-7.32143 -2.47443,-2.07045 -4.79385,-4.44788 -7.67858,-5.89285 -3.53826,-1.77232 -7.4952,-2.77954 -11.42857,-3.21429 -4.38449,-0.48462 -8.80381,0.63457 -13.21428,0.71429 -3.33332,0.0602 -6.80251,0.7652 -10,-0.17857 -2.48714,-0.73411 -4.79222,-2.2549 -6.60715,-4.10715 -1.55037,-1.58225 -2.70729,-3.60782 -3.39285,-5.71428 -0.59207,-1.81919 -0.77187,-3.8158 -0.53572,-5.71429 z"
       id="path4590"
       inkscape:connector-curvature="0"
       sodipodi:nodetypes="sssssssssssssssssssssssssssss" />
    <path
       style="fill:#000000;fill-opacity:1;stroke:none;display:inline"
       d="m 520.57362,927.35319 c 6.5994,0 13.25563,-0.35318 19.80771,0.41673 10.56148,1.24103 19.86442,7.9417 26.19095,16.25346 3.03168,3.98301 4.76657,8.93523 4.00132,14.08497 -0.75038,5.04961 -2.69958,10.67308 -0.0801,15.458 2.18049,3.98302 7.63237,5.65476 11.69019,4.35523 5.38234,-1.72371 9.09201,-7.10366 9.84346,-12.8591 1.66642,-12.76325 -2.70783,-25.6463 -10.20357,-35.74501 -8.18521,-11.0276 -21.96984,-15.38177 -34.32099,-20.16326 -4.15504,-1.60854 -8.43959,-2.88975 -12.8836,-2.72792 -4.21795,0.1536 -6.94671,-3.8417 -10.91857,-3.56805 -5.6148,0.38684 -10.19915,3.91267 -15.47322,5.92711 -5.02731,1.9202 0.99644,-5.54511 3.95353,-6.43216 9.70187,-2.91029 18.66643,-3.24524 28.5343,-1.22002 7.88666,1.61861 15.63669,3.958 22.41724,8.4388 11.47563,7.58346 22.2357,17.09394 27.85374,29.95644 2.9918,6.84973 5.62718,14.12123 4.58664,21.73493 -1.03597,7.58025 -4.09431,16.09682 -11.45793,19.46923 -5.70859,2.61444 -13.33076,0.50652 -15.99915,-5.58722 -2.48067,-5.66506 -1.46037,-11.76185 -0.23815,-17.48109 1.09488,-5.12336 -2.61306,-9.37259 -6.23241,-12.6325 -5.97109,-5.37809 -11.68557,-11.64385 -19.73854,-13.60497 -7.66227,-1.86597 -15.36048,1.23362 -23.01077,1.00131 -7.83963,-0.23806 -13.87076,-7.55065 -15.47722,-15.39048 -0.55713,-2.71891 2.48301,-7.0998 2.46772,-2.46873 -0.0141,4.25878 1.32659,8.58223 5.04452,10.99858 2.89311,1.88029 6.02612,1.78572 9.64286,1.78572 z"
       id="path4588"
       inkscape:connector-curvature="0"
       sodipodi:nodetypes="ssssssssssssssssssssssssssss" />
    <path
       style="fill:#000000;fill-opacity:1;stroke:none;display:inline"
       d="m 539.22987,859.72315 c -7.8341,0.90509 -17.20634,5.34046 -18.46875,14.88839 -1.4867,11.2443 7.19086,19.51399 18.4359,18.91812 22.23731,-1.17835 43.97584,11.40752 57.09535,29.22474 4.83902,6.57173 6.90037,10.93298 8.38393,18.70089 1.45635,7.62544 9.21071,15.03495 16.21875,12.01786 9.53713,-4.10591 13.4553,-15.75505 10.48568,-25.34184 -5.77243,-18.63502 -14.71457,-38.6195 -27.24236,-48.8853 -18.06812,-14.36542 -41.53496,-21.64734 -64.9085,-19.52286 z"
       id="path4596"
       inkscape:connector-curvature="0"
       sodipodi:nodetypes="csssssscc" />
    <path
       style="fill:#ffb134;fill-opacity:1;stroke:none;display:inline"
       d="m 533.78791,865.03176 c 7.33834,-3.06318 15.53817,-0.71435 22.5,1.96429 5.0672,1.94966 15.75848,0.81581 20.63758,2.75039 21.25965,8.42953 31.30247,20.29749 38.16102,30.18123 6.70826,9.66713 10.52497,21.15621 12.87734,30.3511 1.29332,5.0553 1.50802,11.01712 -2.21166,15.46728 -3.53639,4.23087 -9.51942,6.50661 -14.00614,2.97936 -4.62919,-3.63925 -3.14477,-10.62904 -5.2969,-15.66162 -6.25556,-14.62813 -17.50788,-27.15181 -31.76811,-34.34322 -10.37311,-5.23115 -21.65708,-9.56343 -33.51033,-8.99902 -6.00166,0.28578 -12.99857,-1.43371 -15.98921,-7.38822 -2.07928,-4.13994 -1.91433,-8.37518 0.76994,-12.37041 1.57485,-2.34399 5.05265,-3.76913 7.83647,-4.93116 z"
       id="path4593"
       inkscape:connector-curvature="0"
       sodipodi:nodetypes="sssssssssssss" />
    <g
       transform="translate(-14.426382,142.84815)"
       style="display:inline"
       id="g3039">
      <path
         inkscape:connector-curvature="0"
         id="path3886"
         d="m 449.28571,255.93361 31.42858,19.28571 39.28571,25 27.14286,25 7.5,17.5 3.21428,22.85715 0.17858,14.28571 -0.71429,20.35714 -0.89286,40.35715 -2.14285,30.53571 -4.10715,39.46429 -4.46428,40.71428 -3.39286,18.57143 -4.10714,10.89286 -5.53572,6.60714 -8.39285,2.67857 -6.96429,-1.60714 -7.5,-6.07143 -4.10714,-8.03571 -4.28572,-17.14286 1.60715,-27.14286 3.75,-39.64285 1.60714,-45.89286 1.25,-39.28572 -1.78572,-16.07142 -6.96428,-18.57143 -7.5,-9.64286 -13.57143,-4.64286 -15.89286,-6.42857 -12.85714,-6.25 -3.39286,-59.46428 z"
         style="fill:#b7cffc;fill-opacity:0.29019608;stroke:none" />
      <path
         sodipodi:nodetypes="ccccccccccccscc"
         inkscape:connector-curvature="0"
         id="path4649"
         d="m 452.14285,260.21932 c -0.20677,20.64366 18.88667,34.51959 26.8524,40.75957 8.3391,7.07177 21.57416,11.20199 28.07835,20.24917 5.94295,6.83101 10.8682,24.07423 20.69458,18.93517 7.75123,-8.19461 13.37327,-1.84959 19.01754,8.98467 4.90375,9.17555 3.0133,25.76897 4.17379,35.70923 -0.8633,27.07342 -0.81669,41.33083 -2.45464,68.37466 -2.5308,32.09012 -4.664,64.81496 -8.32267,96.79209 -2.26513,12.83295 -0.57849,16.67596 -11.07506,25.90973 -25.93765,8.39476 -17.29628,-44.38111 -16.80678,-58.61659 4.21021,-33.22117 10.99301,-70.34647 13.14088,-103.70624 0.66163,-18.54145 -8.96035,-38.61767 -21.92733,-52.80102 -10.68261,-5.63857 -18.39856,-8.16468 -30.19891,-11.47142 -13.33408,-3.73653 -26.03193,-18.11977 -24.37014,-28.36267 2.41809,-8.31025 -3.2769,-53.79725 3.19799,-60.75635 z"
         style="fill:#b7cffc;fill-opacity:0.29019608;stroke:none" />
      <path
         sodipodi:nodetypes="ssssssssss"
         inkscape:connector-curvature="0"
         id="path3855"
         d="m 129.79811,238.26837 c -4.22201,1.20374 -7.94875,5.65412 -8.57143,10 -9.35435,65.28644 -13.05972,142.94266 -6.42857,206.42857 8.14422,77.97187 36.41035,136.96621 100.71429,172.14286 36.14652,19.7735 101.67161,16.10063 139.28572,-0.71429 48.16318,-21.53075 83.07138,-71.73493 93.57142,-197.85714 5.22314,-62.73822 -1.80991,-107.17091 -8.57143,-179.28572 -0.51888,-5.53411 -3.1162,-14.82689 -11.42857,-16.42857 -54.69676,-10.53932 -94.37698,-10.71225 -142.85714,-11.42857 -52.21266,-0.77147 -105.25447,2.75619 -155.71429,17.14286 z"
         style="fill:#b7cefc;fill-opacity:0.28977272;stroke:none;display:inline" />
      <path
         style="fill:#b7cffc;fill-opacity:0.29019608;stroke:none;display:inline"
         d="m 421.50489,286.64933 c 25.19141,2.76488 22.678,20.19075 22.91384,30.3068 2.30687,98.94642 -4.59358,206.15835 -38.4583,259.50724 -20.21566,31.8468 -62.46999,71.00349 -147.81424,53.43422 -58.73579,-31.02214 -13.22629,-272.78818 -17.90548,-303.95037 18.81858,-1.95931 72.18183,-16.44025 77.87308,-25.11713 5.59442,-6.60378 93.94241,-15.2178 103.3911,-14.18076 z"
         id="path4652"
         inkscape:connector-curvature="0"
         sodipodi:nodetypes="ssscccs" />
    </g>
    <path
       style="fill:#c8c4b7;stroke:none;display:inline"
       d="m 135.37173,937.90223 c 17.15323,25.79555 52.499,39.45193 131.69755,40.56132 79.19854,1.1094 106.53362,-13.0371 133.30469,-27.71918 11.07242,-6.07246 20.78534,-16.19724 19.48501,-29.32245 -1.99438,-20.13075 -10.34083,-39.19597 -19.7947,-56.86181 -18.76587,-35.06658 -55.27835,-58.35901 -94.17966,-64.70606 -32.96392,-5.37832 -67.69585,-5.47979 -99.57284,4.86898 -34.74078,11.27849 -56.16819,44.41081 -71.94831,75.55348 -9.02281,17.80684 -10.3375,40.56362 1.00826,57.62572 z"
       id="path3850"
       inkscape:connector-curvature="0"
       sodipodi:nodetypes="scsssssss" />
    <path
       sodipodi:nodetypes="scsssssss"
       inkscape:connector-curvature="0"
       id="path4614"
       d="m 139.81554,930.66445 c 15.98159,23.59054 48.91307,36.07956 122.702,37.09413 73.78891,1.01457 92.11402,-8.35126 117.0565,-21.77831 10.31612,-5.55338 22.93704,-19.0984 21.72552,-31.10167 -1.85815,-18.40996 -5.34879,-29.41691 -14.15691,-45.57267 -17.48407,-32.06908 -55.7883,-60.51331 -104.88961,-58.46069 -31.07655,1.29912 -45.21477,-13.5828 -74.91442,-4.11864 -32.36782,10.3144 -53.7602,42.75741 -68.46247,71.238 -8.40651,16.2847 -9.63141,37.09623 0.93939,52.69985 z"
       style="fill:#e3e2db;stroke:none;display:inline" />
    <path
       inkscape:connector-curvature="0"
       id="path3847"
       d="m 277.72987,847.8794 c -3.32765,0.0248 -6.73051,0.35647 -10.15625,1.09375 -18.00519,3.87503 -35.57323,20.72371 -36,41.71875 -0.60135,29.58298 22.83526,44.44216 47.78125,44.4375 20.28104,-0.16415 41.16007,-7.7075 46.625,-27 5.71715,-20.18289 -1.03886,-36.6044 -15.53125,-49.65625 -5.46341,-4.92034 -18.29892,-10.70111 -32.71875,-10.59375 z m 1.21875,3.9375 c 25.62779,0.3735 44.43456,23.29057 40.5625,49.6875 -2.76322,18.83764 -19.35535,30.42443 -43.6875,29.6875 -22.4858,-0.68101 -40.89319,-17.53738 -38.75,-41.59375 1.59928,-17.95123 15.74036,-38.16213 41.875,-37.78125 z"
       style="fill:#000000;stroke:none;display:inline" />
    <path
       style="fill:#c8c4b7;stroke:none;display:inline"
       d="m 278.94316,851.83081 c -26.13464,-0.38088 -40.26279,19.81179 -41.86207,37.76302 -2.14319,24.05637 16.25915,40.91476 38.74495,41.59577 24.33215,0.73693 40.91636,-10.84342 43.67958,-29.68106 3.87206,-26.39693 -14.93467,-49.30423 -40.56246,-49.67773 z"
       id="path3844"
       inkscape:connector-curvature="0"
       sodipodi:nodetypes="sssss" />
    <path
       sodipodi:nodetypes="sssss"
       inkscape:connector-curvature="0"
       id="path4610"
       d="m 276.03632,853.25881 c -23.43898,-0.33976 -36.10988,17.67299 -37.5442,33.68627 -1.92213,21.45934 14.5821,36.49776 34.7486,37.10525 21.82241,0.65737 36.69604,-9.67281 39.17425,-26.47681 3.47268,-23.54722 -13.39423,-43.98153 -36.37865,-44.31471 z"
       style="fill:#e3e2db;stroke:none;display:inline" />
    <path
       style="fill:#f2f2f2;stroke:none;display:inline"
       d="m 274.05906,867.23948 c 2.31238,-6.00594 -2.794,-8.76239 -8.25356,-8.69789 -7.31635,0.0865 -14.11429,4.71423 -16.21392,9.89014 -2.27205,5.60091 -0.0556,9.12794 5.58256,9.30919 7.90058,0.25399 16.61737,-4.61196 18.88492,-10.50144 z"
       id="path4612"
       inkscape:connector-curvature="0"
       sodipodi:nodetypes="sssss" />
    <path
       style="fill:#f2f2f2;fill-opacity:1;stroke:none;display:inline"
       d="m 168.72391,855.48676 c 5.91407,-8.10925 35.48252,-38.05143 34.07918,-38.28294 -9.10503,-0.39692 -29.05767,14.61618 -37.33019,26.46101 -5.23573,7.49669 -21.6022,26.05241 -26.12583,49.19461 2.53087,14.3328 20.80069,-25.61325 29.37684,-37.37268 z"
       id="path4616"
       inkscape:connector-curvature="0"
       sodipodi:nodetypes="scscs" />
    <path
       sodipodi:nodetypes="sssssss"
       inkscape:connector-curvature="0"
       id="path4618"
       d="m 331.72053,900.97002 c -3.92349,17.1308 -11.22876,24.88929 -20.26665,29.98846 -8.78347,4.95562 -5.80609,7.01357 3.10622,3.33165 11.76561,-4.86069 19.64583,-15.61067 22.70353,-29.73105 1.93523,-8.9369 1.51626,-30.84335 -7.52121,-37.03182 -6.11901,-4.19004 -7.57776,-2.27267 -3.59191,3.60842 4.26779,6.29709 8.42106,17.38605 5.57002,29.83434 z"
       style="fill:#f2f2f2;fill-opacity:1;stroke:none;display:inline" />
    <path
       inkscape:connector-curvature="0"
       id="path3857"
       d="m 267.16737,354.9419 c -2.14161,0.0149 -4.07896,0.0543 -5.78125,0.0937 -26.85735,0.6229 -121.33052,4.10469 -152.84375,13.93751 -11.228089,3.50341 -13.062499,12.09375 -13.062499,12.09375 0,0 -3.97871,118.86126 -0.84375,188.18749 7.831139,87.56557 20.089879,154.51031 104.656249,213.65625 -32.26566,22.2798 -63.6608,63.32508 -80.75,98.21875 -9.77133,19.9516 -14.41198,42.94534 -2.125,62.0625 18.57623,28.90251 67.35631,39.53824 153.125,40.78125 85.7687,1.24302 112.3518,-8.86202 141.34375,-25.3125 11.99096,-6.80386 23.93946,-16.38766 22.53125,-31.09375 -2.15983,-22.55541 -6.54311,-45.70639 -16.78125,-65.5 -20.32265,-39.29021 -44.5099,-60.37508 -83.78125,-80.34375 78.80971,-24.17263 100.78357,-127.42635 103.3125,-210 0.84685,-27.65102 1.39361,-55.40037 1.75,-80.90624 2.01391,-0.87054 4.72835,1.25066 7,2.5625 6.5379,3.77551 20.335,7.19667 30,12 7.0814,4.09398 10.62901,11.92746 13.46875,19.3125 1.84289,4.79261 3.11569,9.66142 3.25,14.75 0.27045,10.24696 -1.22322,20.51235 -1.4375,30.78124 -0.35464,16.99551 -0.64058,33.99547 -1.625,50.96875 -1.10996,19.13793 -0.9674,38.37033 -3.375,57.40625 -0.8581,6.78463 -0.62385,13.54396 -0.53125,20.375 0.0377,2.78259 1.65984,5.59631 4.625,4.75 1.97131,-2.66932 1.07505,-6.30872 1.09375,-9.46875 0.0629,-10.63413 1.64194,-21.10396 2.8125,-31.625 1.51644,-13.6298 2.16368,-27.3572 2.6875,-41.0625 0.74133,-19.39618 3.6217,-38.64654 2.96875,-58.09375 -0.38599,-11.49621 -0.68346,-23.10728 -3.75,-34.21874 -2.15534,-7.80976 -5.59053,-15.36941 -9.96875,-22.28125 -2.0615,-3.25447 -4.7165,-5.55026 -8,-7.25 -4.97057,-2.57307 -10.98699,-2.78117 -16.25,-4.78125 -6.03372,-2.29297 -17.89748,-5.65627 -22.875,-11.40625 0.0179,-1.40172 0.0457,-2.89657 0.0625,-4.28125 0.34495,-28.46157 0.44849,-53.21122 0.46875,-70.25 -0.17471,-4.71682 7.80626,3.47545 12.0625,6.09375 19.31196,11.88006 50.05818,26.66592 70.46875,46.1875 12.43707,11.47922 17.41703,28.16529 18.53125,44.5625 2.15323,39.888 0.22311,79.93373 -3.15625,119.71874 -3.39026,27.05193 -5.15993,54.21728 -9.34375,81.28125 -4.14461,26.81032 -22.20704,30.25976 -32.1875,11.8125 -4.25775,-14.02712 -7.04376,2.57424 -0.96875,9.59375 11.21975,12.96413 27.31326,7.09122 32.75,-5.25 8.88179,-19.78884 7.19079,-42.26917 10.125,-63.375 3.96775,-28.54015 7.04726,-57.17808 7.65625,-86 0.59132,-32.25173 5.36783,-65.40755 -3.46875,-96.96874 -8.78153,-25.92663 -33.07466,-42.17865 -56,-54.09375 -18.15572,-9.43606 -46.0625,-37.2187 -46.0625,-37.2187 -0.2195,-0.22805 -0.4468,-0.49293 -0.4375,-0.84375 0,0 1.17185,-14.48694 -12.53125,-17.4375 -43.95541,-9.46447 -116.16862,-12.04791 -151.78125,-12.12501 -2.54376,-0.005 -4.88964,-0.0149 -7.03125,0 z m -5.875,8.93751 c 3.26894,0.013 6.51796,0.0455 9.78125,0.0937 48.48016,0.71632 88.17824,0.89818 142.875,11.4375 8.31237,1.60168 10.91862,10.87214 11.4375,16.40625 6.76152,72.11481 13.78564,116.57428 8.5625,179.31249 -10.50004,126.12226 -45.39932,176.31305 -93.5625,197.8438 -37.61411,16.81492 -103.16598,20.49225 -139.3125,0.71875 -64.30394,-35.17665 -92.54328,-94.18438 -100.6875,-172.15625 -6.631149,-63.4859 -2.948099,-141.1198 6.40625,-206.40624 0.62268,-4.34588 4.37174,-8.79626 8.59375,-10 47.30608,-13.4875 96.87221,-17.44543 145.90625,-17.25 z m 0.6875,432.37499 c 14.7114,-0.10025 29.48453,1.24073 43.90625,3.59375 38.90131,6.34705 75.42163,29.65217 94.1875,64.71875 9.45387,17.66584 17.78687,36.713 19.78125,56.84375 1.30033,13.12521 -8.39633,23.27129 -19.46875,29.34375 -26.77107,14.68208 -54.11396,28.82815 -133.3125,27.71875 -79.19855,-1.10939 -114.53427,-14.76695 -131.6875,-40.5625 -11.34576,-17.0621 -10.05406,-39.81816 -1.03125,-57.625 15.78012,-31.14267 37.22797,-64.28401 71.96875,-75.5625 17.93081,-5.82118 36.74159,-8.33986 55.65625,-8.46875 z"
       style="fill:#000000;fill-opacity:1;stroke:none;display:inline;filter:url(#filter3838)" />
    <path
       style="fill:#ffb134;fill-opacity:1;stroke:none;display:inline"
       d="m 244.50219,482.71034 36.47005,17.73274 34.28571,22.24746 16.3871,7.87694 35,2.14286 23.57143,-15 11.78571,-24.28571 2.85714,-23.21429 -5.71428,-10.35714 -13.21429,17.5 -32.5,12.85714 -31.78571,5.35714 -32.14286,-3.92857 -29.64286,-8.92857 -13.57142,-3.92857 z"
       id="path4495"
       inkscape:connector-curvature="0"
       sodipodi:nodetypes="cccccccccccccccc" />
    <path
       style="fill:#ffe680;stroke:none;display:inline"
       d="m 128.78791,469.8532 -8.57143,13.92857 -1.07143,55 4.64286,58.92856 4.28571,40.71429 11.78571,31.78571 22.85715,36.42857 43.21428,38.21429 34.64286,15 42.14286,1.78571 48.21428,-12.14285 32.14286,-25.35715 14.64286,-18.21428 17.85714,-33.57143 11.07143,-45 9.28571,-54.64286 0,-56.07142 -5,-31.78571 -7.14285,-0.71429 -10.35715,28.57143 -11.42857,11.78572 -22.85714,8.21428 -27.14286,-3.21428 -20.35714,-10 -38.57143,-24.28572 -57.14286,-23.92857 -49.64285,-9.28571 z"
       id="path4497"
       inkscape:connector-curvature="0" />
    <path
       style="fill:#000000;fill-opacity:1;stroke:none;display:inline"
       d="m 395.44862,449.22316 -3.03125,3.28125 c 0.21769,5.5756 -0.69426,9.39529 -2.53125,14.90625 -5.94603,6.21174 -13.54818,9.76567 -20.96875,13.875 -18.13533,5.89511 -33.31095,7.03791 -52.28125,8.59375 -19.13141,1.21225 -33.3614,-2.29419 -51.5,-7.09375 l -24,-7.0625 -3.78125,0.75 39.40625,15.15625 c 0,0 18.01804,4.89565 27.25,6.0625 7.94106,1.00369 15.99964,1.03025 24,0.78125 8.03217,-0.24999 16.10729,-0.77015 24,-2.28125 5.33887,-1.02215 10.58138,-2.61469 15.65625,-4.5625 4.88022,-1.8731 14.125,-6.8125 14.125,-6.8125 l 11.125,-8.0625 5.1875,-7.90625 3.13769,4.10216 c 0.10435,5.61919 1.12263,7.33262 -0.49825,14.40038 -2.10334,9.17144 -4.51579,16.99812 -10.5955,24.48985 -5.13373,6.32603 -14.16566,11.81718 -20.45527,14.40038 -15.8739,4.90675 -27.80826,3.27541 -43.17988,-0.75429 l -11.38769,-4.56075 -7.55235,-5.29648 -3.28125,-0.25 c 0,0 5.64719,5.52283 8.57519,7.55996 5.01667,3.49031 15.64356,7.34629 15.64356,7.34629 9.54881,3.40195 19.07606,4.63696 29.0625,5.28125 13.80302,-0.47406 27.69322,-5.66794 35.59375,-15.90625 5.21374,-6.91667 7.76947,-10.55373 10.625,-16.90625 1.49887,-4.47956 2.02015,-8.90466 2.1875,-13.5625 l 3.34375,8.5 c 0,0 0.3054,5.73093 0.5,8.59375 1.74003,14.51808 1.60478,29.14273 1.78125,42.6875 1.76626,19.71366 -0.70976,38.30117 -4.02871,58.33787 -3.65609,22.07204 -8.1868,42.50557 -15.40879,62.88087 -5.04148,13.89633 -13.09915,26.19271 -20.96875,38.625 -8.94388,14.12942 -20.78298,24.34562 -35.34375,31.8125 -22.35032,11.46142 -41.96182,14.82923 -64.90625,16.4375 -2.99024,0.2096 -8.53125,2.84375 -8.53125,2.84375 0,0 -4.37556,-1.25362 -8.65625,-1.34375 -4.89525,-0.10306 -9.35042,-1.44996 -14.48214,-2.95982 -14.04812,-5.15514 -28.08477,-11.62707 -40.34822,-20.15625 -26.08752,-18.01517 -36.57231,-35.80592 -53.26339,-61.97768 -5.21175,-8.62793 -8.41346,-18.38672 -11.34375,-28.03125 -2.52407,-8.30752 -4.29567,-16.87724 -5.3125,-25.5 -0.9971,-8.4555 -0.40639,-17.0241 -0.75,-25.53125 -0.40117,-9.9321 -1.07334,-19.85161 -1.53125,-29.78125 -0.37652,-8.16478 -0.73103,-16.33095 -1,-24.49999 -0.21911,-6.65473 -0.33214,-13.31253 -0.5,-19.96875 -0.16549,-6.56253 -0.46084,-13.123 -0.5,-19.6875 -0.0323,-5.41706 0.21875,-16.25 0.21875,-16.25 1.66265,-3.27385 4.23478,-6.14942 7.34375,-8 4.375,-2.60417 8.43842,-5.82296 13.125,-7.8125 3.53793,-1.50191 7.31961,-2.49114 11.125,-3.03125 5.16762,-0.73345 10.45228,-0.6513 15.65625,-0.25 7.92423,0.61106 15.72456,2.38527 23.5,4.03125 8.40854,1.78 16.84785,3.58955 25,6.3125 6.40764,2.14026 18.6875,7.84375 18.6875,7.84375 l 13.625,6.0625 7.0625,4.78125 3.53125,1 1.53125,-1 -2.59375,-2.90625 2.09375,1.65625 11.59375,5.03125 16.4375,10.375 8.59375,3.78125 -17.1875,-12.125 -15.15625,-8.59375 -11.09375,-5.28125 0,1.4375 -10.875,-6.25 c 0,0 -10.76801,-4.88124 -16.15625,-7.3125 -5.80947,-2.62132 -11.47666,-5.58773 -17.4375,-7.84375 -5.02891,-1.90331 -10.18226,-3.50747 -15.40625,-4.78125 -5.56232,-1.35628 -11.2245,-2.32656 -16.90625,-3.03125 -6.11381,-0.75827 -12.2816,-1.52334 -18.4375,-1.28125 -4.58831,0.18044 -9.19495,0.823 -13.625,2.03125 -3.24155,0.8841 -6.06061,3.06693 -9.34375,3.78125 -3.70857,0.80688 -7.72257,-0.53163 -11.375,0.5 -4.17312,1.1787 -10.86992,5.30235 -10.86992,5.30235 0,0 -2.83571,17.14409 -3.53633,25.26015 -0.89871,10.41075 -1.48627,20.86304 -1.5,31.3125 -0.0169,12.8986 0.93439,25.78345 1.75,38.65624 0.65689,10.3677 1.30454,20.74669 2.53125,31.0625 1.28737,10.82595 2.71744,21.66547 5.0625,32.3125 2.50496,11.373 5.74751,22.60164 9.59375,33.59375 3.61184,10.32223 7.61377,20.5611 12.625,30.28125 3.50333,6.79532 7.42635,13.43779 12.125,19.46875 5.81349,7.4619 12.4656,14.32843 19.6875,20.4375 7.63242,6.45633 15.97413,12.1498 24.75,16.9375 9.70436,5.29425 20.10978,9.27719 30.5625,12.875 3.95909,1.36271 7.97446,2.72957 12.125,3.28125 3.17004,0.42136 6.41235,0.32457 9.59375,0 2.05269,-0.20941 4.13469,-0.51453 6.0625,-1.25 1.1251,-0.42923 3.125,-1.8125 3.125,-1.8125 0,0 1.69475,2.1831 2.9375,2.5625 11.5769,3.53435 27.8301,2.38505 42.15625,0.75 12.6848,-1.44772 23.57327,-6.69589 34.34375,-13.125 12.83169,-7.65948 23.41689,-18.39388 32.59375,-30.0625 9.10751,-11.58045 18.67207,-27.92219 25.24746,-45.19083 13.62263,-33.94742 18.69313,-70.1993 20.19765,-107.32868 0.9329,-18.68073 1.31856,-37.37784 1.77364,-56.07423 -0.044,-11.20819 -1.62083,-22.25358 -3.03125,-33.34375 l -4.03125,-12.375 -5.3125,-6.8125 c -1.19245,-4.042 -3.44347,-6.47472 -6.3125,-9.34375 -2.36244,-1.16211 -4.5138,-1.5 -7.0625,-1.5 z"
       id="path4489"
       inkscape:connector-curvature="0"
       sodipodi:nodetypes="cccccccccssssccccsscccccsccccccccscssscscccssssssscsssssscccccccccccccccsssssssscsssssssssssssscsssscccccccc" />
    <path
       style="fill:#000000;fill-opacity:1;stroke:none;display:inline"
       d="m 282.47987,386.37941 c -1.43954,0.004 -2.92645,0.0878 -4.40625,0.25 -7.89224,0.86518 -15.4365,4.93095 -16.34375,11.71875 -0.63597,4.75821 0.36957,9.8104 4.3125,13.1875 3.19079,2.7329 6.10458,4.47532 10.75,4.15625 5.93268,-0.40749 12.47549,-0.54761 16.46875,-5.25 3.87085,-4.55824 5.94431,-11.69916 3.34375,-17.34375 -2.33425,-5.06654 -7.88699,-6.73419 -14.125,-6.71875 z m -2.5,4.03125 c 0.44849,-0.0179 0.88273,-0.0217 1.3125,0 3.26544,-0.19291 6.03735,1.0871 8.84375,2.90625 7.16106,6.14047 -0.18078,16.74017 -9.09375,17.5625 -6.83091,0.63024 -13.81607,0.0935 -14.6875,-7.5625 -1.55978,-7.95779 6.89762,-12.63708 13.625,-12.90625 z"
       id="path4451"
       inkscape:connector-curvature="0" />
    <path
       style="fill:#000000;fill-opacity:1;stroke:none;display:inline"
       d="m 363.38612,391.37941 c -10.52312,0.28965 -21.66991,9.36302 -23.84375,20.46875 -1.14081,5.82816 -1.27744,11.42718 1.5625,17.09375 3.63835,7.25966 9.93936,13.23173 17.65625,14.78125 8.95025,1.6639 22.99281,0.81807 29.625,-9.09375 3.50196,-5.2335 3.27687,-11.52281 3.5,-16.6875 0.26975,-6.2437 -1.10982,-13.51089 -5.96875,-17.75 -6.15342,-5.36847 -14.16828,-8.91995 -22.53125,-8.8125 z m 2.03125,4.375 c 3.59006,-0.12851 7.09429,1.41232 9.75,3.8125 2.78018,2.46939 5.48347,5.07544 8.1875,7.625 3.58486,3.69577 4.57014,9.05681 4.25,14.03125 -0.005,4.2275 -1.08543,8.49154 -3.5,12 -2.00822,3.44466 -6.46481,4.95025 -10.6875,5.15625 -9.62083,-0.19862 -15.90179,-1.71668 -22.28125,-7.5 -6.10438,-5.43152 -8.62451,-13.5201 -5.78125,-22.375 3.39037,-8.0687 11.24711,-11.56388 18.53125,-12.5625 0.51365,-0.0888 1.01838,-0.16914 1.53125,-0.1875 z"
       id="path4453"
       inkscape:connector-curvature="0" />
    <path
       style="fill:#ffb134;fill-opacity:1;stroke:#000000;stroke-width:1px;stroke-linecap:butt;stroke-linejoin:miter;stroke-opacity:1;display:inline"
       d="m 363.87575,395.92714 c 4.10921,-0.71068 8.2664,0.90939 11.3015,3.65245 2.78018,2.46939 5.46754,5.04819 8.17157,7.59775 3.58486,3.69577 4.56281,9.08697 4.24267,14.06141 -0.005,4.2275 -1.08418,8.46134 -3.49875,11.9698 -2.00822,3.44466 -6.44536,4.97138 -10.66805,5.17738 -9.62083,-0.19862 -15.90199,-1.71534 -22.28145,-7.49866 -6.10438,-5.43152 -8.63974,-13.51887 -5.79648,-22.37377 3.39037,-8.0687 11.24485,-11.58774 18.52899,-12.58636 z"
       id="path4461"
       inkscape:connector-curvature="0"
       sodipodi:nodetypes="ccccccccc" />
    <path
       style="fill:#ffb134;fill-opacity:1;stroke:none;display:inline"
       d="m 281.29237,390.41066 c -6.87629,-0.34745 -16.59365,4.42555 -14.92989,12.91386 0.87143,7.65597 7.83883,8.18005 14.66974,7.54981 8.91297,-0.82233 16.25735,-11.4068 9.09629,-17.54727 -2.8064,-1.81915 -5.5707,-3.10931 -8.83614,-2.9164 z"
       id="path4469"
       inkscape:connector-curvature="0"
       sodipodi:nodetypes="ccscc" />
    <path
       sodipodi:nodetypes="ccccccccc"
       inkscape:connector-curvature="0"
       id="path4602"
       d="m 355.87983,401.28737 c 2.01053,-1.40668 4.5333,-1.8881 6.70115,-1.61139 1.97675,0.23602 3.92757,0.54141 5.88105,0.83048 2.65578,0.51033 4.29612,2.41414 5.16735,4.50415 0.8807,1.70338 1.1984,3.70219 0.66286,5.77314 -0.33537,1.93446 -2.34769,3.7591 -4.5233,4.99356 -5.09643,2.5436 -8.71356,3.64582 -13.27387,3.05712 -4.34226,-0.52208 -7.36427,-3.08667 -7.72065,-7.42698 0.0954,-4.17301 3.48689,-7.73167 7.10541,-10.12008 z"
       style="fill:#ffe680;fill-opacity:1;stroke:none;display:inline" />
    <path
       style="fill:#ffe680;fill-opacity:1;stroke:none;display:inline"
       d="m 271.53564,395.31417 c 0.86821,-0.63714 1.95762,-0.85519 2.89376,-0.72986 0.85363,0.1069 1.69606,0.24522 2.53963,0.37616 1.14685,0.23115 1.8552,1.09345 2.23143,2.04009 0.38031,0.77153 0.5175,1.67686 0.28624,2.61487 -0.14482,0.87619 -1.01381,1.70264 -1.9533,2.26178 -2.20081,1.15209 -3.76279,1.65133 -5.73208,1.38468 -1.87513,-0.23647 -3.18013,-1.39807 -3.33402,-3.36396 0.0412,-1.89011 1.50575,-3.50196 3.06834,-4.58376 z"
       id="path4604"
       inkscape:connector-curvature="0"
       sodipodi:nodetypes="ccccccccc" />
    <path
       style="fill:#000000;fill-opacity:1;stroke:none;display:inline"
       d="m 201.32362,662.9419 c -8.68185,0.24763 -17.11247,6.28093 -20.46875,14.34375 -3.83293,13.28188 0.57835,28.09008 10.78125,36.75 11.12848,6.32557 26.54642,8.56031 35.9375,-2.25 9.1519,-7.52195 7.76718,-21.96717 1.21875,-30.84375 -5.45944,-10.09902 -14.64001,-16.89805 -25.75,-17.96875 -0.57965,-0.036 -1.13996,-0.0478 -1.71875,-0.0312 z m 3.125,7.5 c 7.4662,0.0537 14.61518,4.02032 18.4375,10.1875 4.13864,6.67755 7.39224,16.96008 2.84375,23.53125 -3.10708,4.48878 -9.2426,8.00051 -14.9375,8.25 -5.53536,0.2425 -10.48763,-0.94614 -14.90625,-4.1875 -4.17319,-3.06132 -6.88651,-7.51896 -8.75,-12.15625 -1.53504,-3.81996 -2.9121,-12.49176 0.625,-17.9375 3.84133,-5.91413 9.53875,-7.73896 16.6875,-7.6875 z"
       id="path4509"
       inkscape:connector-curvature="0" />
    <path
       style="fill:#ffb134;fill-opacity:1;stroke:none;display:inline"
       d="m 204.43777,670.43886 c 7.4662,0.0537 14.62226,4.034 18.44458,10.20118 4.13864,6.67755 7.40178,16.96475 2.85329,23.53592 -3.10708,4.48878 -9.23693,7.9715 -14.93183,8.22099 -5.53536,0.2425 -10.48582,-0.92064 -14.90444,-4.162 -4.17319,-3.06132 -6.91442,-7.52577 -8.77791,-12.16306 -1.53504,-3.81996 -2.89121,-12.48306 0.64589,-17.9288 3.84133,-5.91413 9.52167,-7.75569 16.67042,-7.70423 z"
       id="path4505"
       inkscape:connector-curvature="0"
       sodipodi:nodetypes="ssssssss" />
    <path
       style="fill:#000000;fill-opacity:1;stroke:none;display:inline"
       d="m 178.32362,585.22315 c -1.36049,0.0201 -2.65288,0.0791 -3.875,0.1875 -15.88125,1.40831 -25.76412,17.81751 -21.6875,33.53125 4.00331,15.43118 17.68488,18.71496 27.46875,18.46875 10.49033,-0.26399 20.99592,-1.36634 31.65625,3.71875 20.01056,9.54525 42.29604,31.35037 44.15625,53.375 2.15469,25.51129 18.77608,34.29171 35.09375,28.6875 13.69195,-4.70243 15.40053,-24.24505 11.40625,-36.90625 -6.0927,-19.31287 -12.00438,-38.16485 -24.71875,-54.0625 -18.10053,-22.63234 -43.9292,-37.26532 -71.4375,-43.8125 -6.25016,-1.48758 -18.5391,-3.32838 -28.0625,-3.1875 z m 5.9375,7.21875 c 10.86964,-0.20461 21.7083,2.95605 32.0625,5.96875 15.95279,5.82562 31.75317,13.20827 44.78125,24.28125 10.06768,9.58737 18.18321,21.15744 25.28125,33.0625 5.71616,10.6381 8.98763,22.3442 12.96875,33.6875 2.05785,7.86605 0.5893,16.76839 -4,23.46875 -5.6175,6.50364 -15.6104,7.42282 -22.65625,2.71875 -7.39045,-3.64706 -12.357,-11.21476 -12.59375,-19.5 -0.61908,-12.80834 -7.00789,-24.37938 -14.125,-34.71875 -8.46519,-12.7103 -21.78789,-21.3478 -36.21875,-25.8125 -8.14622,-3.15954 -16.88853,-3.31543 -25.5,-3.3125 -7.09545,0.30926 -14.26973,-2.05897 -17.625,-8.8125 -7.76208,-8.27935 -4.21302,-22.76104 5.15625,-28.21875 1.52216,-0.96407 3.1657,-1.7284 4.9375,-2.09375 2.50526,-0.44916 5.02287,-0.67153 7.53125,-0.71875 z"
       id="path4524"
       inkscape:connector-curvature="0" />
    <path
       style="fill:#ffb134;fill-opacity:1;stroke:none;display:inline"
       d="m 176.74499,593.15941 c 13.36141,-2.39552 26.8486,1.54044 39.59223,5.24838 15.95279,5.82562 31.72743,13.22561 44.75551,24.29859 10.06768,9.58737 18.18782,21.12955 25.28586,33.03461 5.71616,10.6381 9.00482,22.34574 12.98594,33.68904 2.05785,7.86605 0.57797,16.78676 -4.01133,23.48712 -5.6175,6.50364 -15.59787,7.42733 -22.64372,2.72326 -7.39045,-3.64706 -12.35299,-11.21099 -12.58974,-19.49623 -0.61908,-12.80834 -7.02878,-24.39434 -14.14589,-34.73371 -8.46519,-12.7103 -21.79281,-21.34073 -36.22367,-25.80543 -8.14622,-3.15954 -16.88441,-3.33477 -25.49588,-3.33184 -7.09545,0.30926 -14.25588,-2.06119 -17.61115,-8.81472 -7.76208,-8.27935 -4.22802,-22.74252 5.14125,-28.20023 1.52216,-0.96407 3.18879,-1.73349 4.96059,-2.09884 z"
       id="path4519"
       inkscape:connector-curvature="0" />
    <path
       style="fill:#000000;fill-opacity:1;stroke:none;display:inline"
       d="m 176.91737,504.87941 c -9.94328,0.10515 -19.21988,1.15885 -25.65625,3.8125 -14.34253,5.91328 -13.2485,20.07321 -11.0625,29.75 2.60331,11.5241 17.16419,19.54508 28.1875,19.78125 29.79596,0.63837 61.53017,6.71413 88.15625,21.18749 19.19107,10.43185 32.06659,20.66579 45.5,37.78125 14.04488,17.15969 18.27666,43.98298 31.34375,61.5625 5.67928,7.6405 17.73802,12.47533 27.4375,8.875 8.16272,-3.02991 14.27836,-11.54782 14.3125,-20 2.77601,-26.09448 -14.25099,-52.70107 -27.78125,-73.65625 -19.12143,-28.58634 -37.98174,-46.72393 -69.6875,-64.59374 -17.76363,-10.01183 -43.25754,-18.34821 -63.46875,-21.53125 -10.58327,-1.66676 -24.49703,-3.10394 -37.28125,-2.96875 z m 15.125,5.0625 c 10.10291,0.10126 13.83,3.44382 29.1875,5.0625 18.01764,1.89906 33.42577,8.75039 49.625,16.96875 15.95188,8.09287 31.16572,17.43824 44.09375,29.87499 17.55411,16.88704 32.1676,36.49986 43.34375,58.21875 8.0043,15.55494 14.04737,33.36733 9.34375,50.59375 -2.92433,10.70999 -17.32411,14.04348 -25.28125,6.40625 -11.49772,-10.21728 -15.16239,-25.80089 -21.46875,-39.25 -9.2536,-24.99279 -29.60446,-43.38259 -49.75,-59.78125 -13.29363,-8.70605 -27.067,-15.34788 -42.34375,-19.62499 -19.86756,-5.56244 -55.01419,-10.3196 -63.53125,-9.65625 -9.95446,0.7753 -18.6935,-6.06058 -18.6875,-16.4375 -1.62981,-9.77547 2.24146,-18.98447 12.9375,-18.53125 7.02381,0.29762 19.625,-2.6875 19.625,-2.6875 5.44493,-0.87119 9.53861,-1.19 12.90625,-1.15625 z"
       id="path4537"
       inkscape:connector-curvature="0" />
    <path
       style="fill:#ffb134;fill-opacity:1;stroke:none;display:inline"
       d="m 159.50219,513.78177 c -10.69604,-0.45322 -14.5459,8.76534 -12.91609,18.54081 -0.006,10.37692 8.71868,17.22119 18.67314,16.44589 8.51706,-0.66335 43.66111,4.09372 63.52867,9.65616 15.27675,4.27711 29.06748,10.89886 42.36111,19.60491 20.14554,16.39866 40.49422,34.77938 49.74782,59.77217 6.30636,13.44911 9.96956,29.05808 21.46728,39.27536 7.95714,7.63723 22.34682,4.27919 25.27115,-6.4308 4.70362,-17.22642 -1.35343,-35.02019 -9.35773,-50.57513 -11.17615,-21.71889 -25.76382,-41.33712 -43.31793,-58.22416 -12.92803,-12.43675 -28.13916,-21.79403 -44.09104,-29.8869 -16.19923,-8.21836 -31.61037,-15.05689 -49.62801,-16.95595 -20.47667,-2.15824 -20.31581,-7.38568 -42.09551,-3.90093 0,0 -12.61905,2.97619 -19.64286,2.67857 z"
       id="path4534"
       inkscape:connector-curvature="0"
       sodipodi:nodetypes="scsscccsssssss" />
  </g>
  <g
     inkscape:groupmode="layer"
     id="layer2"
     inkscape:label="Layer"
     style="display:inline">
    <g
       transform="translate(0,-252.36218)"
       id="g3027">
      <path
         sodipodi:nodetypes="sssssssss"
         inkscape:connector-curvature="0"
         id="path4620"
         d="m 135.13335,392.55443 c -4.61698,47.92152 -7.44202,109.82356 -4.87119,156.45084 1.89676,34.40206 5.77793,69.72864 16.23731,102.81053 4.72113,14.93244 21.46565,42.25867 37.34581,47.68025 6.59455,2.25142 1.91262,-23.94198 4.8712,-29.80016 10.50833,-20.80714 -2.97768,-42.8556 -6.49493,-65.56034 -5.94357,-38.36722 -3.87962,-64.06829 -4.87119,-102.81055 -0.70081,-27.3814 11.44192,-81.36444 -4.8712,-104.30054 -5.69023,-8.00041 -36.42895,-13.98654 -37.34581,-4.47003 z"
         style="fill:#ffffff;fill-opacity:0.40909095;stroke:none;display:inline" />
      <path
         sodipodi:nodetypes="sssssssss"
         inkscape:connector-curvature="0"
         id="path4635"
         d="m 141.20755,407.29459 c -5.24237,76.68218 -9.72022,155.42602 10.15625,230.34374 2.55684,9.63716 3.83226,30.59233 13.03125,26.71875 10.6062,-4.46614 5.48028,-22.53637 2.59375,-34.25 -4.51284,-18.31327 -8.88056,-36.58141 -9.78912,-55.71018 -2.20556,-46.43579 -0.70596,-92.8466 1.41412,-139.19606 0.47966,-10.48641 0.33544,-22.87093 -6.84375,-31 -2.13796,-2.42084 -8.85966,-4.23506 -10.2256,-1.75241 -0.78058,1.41873 -0.22646,3.23064 -0.3369,4.84616 z"
         style="fill:#ffffff;fill-opacity:0.88068183;stroke:none;display:inline" />
    </g>
  </g>
</svg>
